<?xml version="1.0" encoding="UTF-8"?><!DOCTYPE svg PUBLIC "-//W3C//DTD SVG 1.1//EN" "http://www.w3.org/Graphics/SVG/1.1/DTD/svg11.dtd"><svg xmlns="http://www.w3.org/2000/svg" xmlns:xlink="http://www.w3.org/1999/xlink"><symbol id="stuff">
  <symbol id="grand-logo" viewBox="0 0 120 42">
  <path d="M103.51.42,103.27,6l-.06,3.35-.09.08a9.13,9.13,0,0,0-6.27-2.3c-6.63,0-10.1,4.73-10.45,13.07-.38,9.09,2.71,13.32,9.43,13.32a9.15,9.15,0,0,0,7.09-2.72l.13,0,.55,2.18h5.21L110.2.09Zm-1.09,25.67a5,5,0,0,1-4.52,2.14c-3.79,0-4.88-1.8-4.62-7.75.24-5.7,1.65-7.54,5.31-7.54a5.11,5.11,0,0,1,4.31,1.93Z"/>
  <polygon points="115.61 28.98 110.27 29.23 110.11 32.92 116 32.91 115.61 28.98"/>
  <path d="M14.46,25.26l-6.19-.34c-1.16-.08-1.7-.54-1.67-1.17a1.57,1.57,0,0,1,1-1.21,20.5,20.5,0,0,0,3.26.25c7.06,0,10-2.85,10.23-7.75a8.28,8.28,0,0,0-.27-2.68l2.84-2.09-1.25-3.1L17.88,8.55a13.19,13.19,0,0,0-6.44-1.38C4.21,7.16,1.31,10.43,1.12,15a6.53,6.53,0,0,0,2.59,6A5.13,5.13,0,0,0,.38,25.38,4.23,4.23,0,0,0,2.2,29.11,5.63,5.63,0,0,0,0,33.21c-.16,3.85,2.82,6.7,10.31,6.7,8.48,0,12.1-3.14,12.32-8.21C22.79,27.81,20.56,25.59,14.46,25.26ZM11.32,12.06c2.45,0,3.41.8,3.31,3.1s-1,3.14-3.75,3.14c-2,0-3.29-.63-3.18-3.1C7.79,13,8.74,12.06,11.32,12.06ZM10.39,35c-3.4,0-4.74-.88-4.67-2.64a3.09,3.09,0,0,1,1.16-2.05l6.18.42c2.92.21,3.58.75,3.53,1.93C16.54,34.09,15.3,35,10.39,35Z"/>
  <path d="M30.65,33l.54-12.73c.18-4.23,2.87-6.7,6.35-6.7a9.68,9.68,0,0,1,2.82.42l.7-6.41a9.9,9.9,0,0,0-2.83-.38,8.29,8.29,0,0,0-7.34,4.57h-.13l-.42-4.23L25,7.79,23.94,33Z"/>
  <path d="M51.21,7.12a23.68,23.68,0,0,0-9,1.67L42.53,14a17.85,17.85,0,0,1,7.25-1.38c3.57,0,4.9,1.17,4.79,3.73L54.5,17.8a16.89,16.89,0,0,0-5-.71c-5.94,0-9.44,3.22-9.63,7.91-.24,5.7,2.79,8.42,7.74,8.42a9.49,9.49,0,0,0,7.18-2.89l.13,0L55.37,33h5.12l.66-15.7C61.45,10.35,58.92,7.12,51.21,7.12Zm3,18.18c-.07,1.63-2.19,3-4.47,3s-3.66-.88-3.56-3.35c.09-2.22,1.52-3.35,4.49-3.35a10.71,10.71,0,0,1,3.68.54Z"/>
  <path d="M77.78,33l.68-16.17c.12-2.81-1.3-3.94-4.05-3.94a5.9,5.9,0,0,0-4.47,1.93L69.17,33H62.46L63.53,7.75l4.83-.29.9,2.18a11.52,11.52,0,0,1,7.3-2.51c5.51,0,8.85,3.39,8.59,9.72L84.46,33Z"/>
</symbol>
<symbol id="mouse" viewBox="0 0 22 35">
  <path d="M11,35A11,11,0,0,1,0,24V11a11,11,0,0,1,22,0V24A11,11,0,0,1,11,35ZM11,2a9,9,0,0,0-9,9V24a9,9,0,0,0,18,0V11A9,9,0,0,0,11,2Z"/>
  <path d="M11.2,9A2.2,2.2,0,0,0,9,11.19v2.19a2.2,2.2,0,0,0,4.4,0V11.19A2.2,2.2,0,0,0,11.2,9"/>
</symbol>
<symbol id="ico-home-1" viewBox="0 0 50 50">
  <path d="M24,19.8V24H19.8A5.31,5.31,0,0,1,24,19.8ZM32.23,24h5A12.31,12.31,0,0,0,26,12.74v5A7.31,7.31,0,0,1,32.23,24ZM12.74,24h5A7.31,7.31,0,0,1,24,17.78v-5A12.32,12.32,0,0,0,12.74,24ZM24,30.2V26H19.8A5.31,5.31,0,0,0,24,30.2ZM17.77,26h-5A12.31,12.31,0,0,0,24,37.26v-5A7.31,7.31,0,0,1,17.77,26ZM50,25A25,25,0,1,1,25,0,25,25,0,0,1,50,25Zm-8.85,0a1,1,0,0,0-1-1h-.89A14.31,14.31,0,0,0,26,10.74V9.54a1,1,0,0,0-2,0v1.2A14.31,14.31,0,0,0,10.74,24H9.54a1,1,0,1,0,0,2h1.2A14.31,14.31,0,0,0,24,39.26v.89a1,1,0,0,0,2,0v-.89A14.31,14.31,0,0,0,39.26,26h.89A1,1,0,0,0,41.15,25ZM26,32.23v5A12.31,12.31,0,0,0,37.26,26h-5A7.31,7.31,0,0,1,26,32.23ZM30.21,26H26v4.2A5.31,5.31,0,0,0,30.21,26ZM26,19.8V24h4.2A5.31,5.31,0,0,0,26,19.8Z"/>
</symbol>
<symbol id="ico-home-2" viewBox="0 0 50 50">
  <path d="M35.22,19a5.5,5.5,0,0,1-7.88,6,1,1,0,0,0-1.16.18l-9.82,9.82a1,1,0,0,1-.71.29h0a1,1,0,0,1-.7-1.71l9.83-9.82A1,1,0,0,0,25,22.66a5.48,5.48,0,0,1,1-6.39,5.61,5.61,0,0,1,5.09-1.48L28.94,17a1,1,0,0,0-.28.7v2.81a1,1,0,0,0,1,1h2.66A1,1,0,0,0,33,21.2ZM50,25A25,25,0,1,1,25,0,25,25,0,0,1,50,25ZM36.52,16.73a1,1,0,0,0-1.6-.25l-3,3H30.65v-1.4l2.94-3a1,1,0,0,0-.26-1.59,7.61,7.61,0,0,0-8.76,1.37,7.48,7.48,0,0,0-1.7,8l-9.34,9.33a3,3,0,0,0,2.11,5.12h0a3,3,0,0,0,2.12-.88l9.33-9.33a7.48,7.48,0,0,0,8-1.68h0A7.49,7.49,0,0,0,36.52,16.73Z"/>
</symbol>
<symbol id="ico-home-3" viewBox="0 0 50 50">
  <path d="M25,0A25,25,0,1,0,50,25,25,25,0,0,0,25,0ZM39.93,24.94a1,1,0,1,1-2,0V19.71L27.46,31.49a.9.9,0,0,1-.75.34,1,1,0,0,1-.75-.34L21.5,26.36l-8.75,8.73a1,1,0,1,1-1.41-1.42l9.51-9.48a1,1,0,0,1,.74-.29,1,1,0,0,1,.72.34l4.42,5.07,10-11.23H31.41a1,1,0,1,1,0-2h7.52l.13,0a.67.67,0,0,1,.4.15.94.94,0,0,1,.12.07l0,0a1,1,0,0,1,.14.18.49.49,0,0,1,.13.3,1,1,0,0,1,0,.21s0,0,0,0Z"/>
</symbol>
<symbol id="ico-service-1" viewBox="0 0 50 50">
  <path d="M25.5,29.2998 L25.5,31.9998 C25.5,32.5528 25.052,32.9998 24.5,32.9998 C23.948,32.9998 23.5,32.5528 23.5,31.9998 L23.5,28.3568 C23.5,27.8038 23.948,27.3568 24.5,27.3568 C28.084,27.3568 31,24.5848 31,21.1778 C31,17.7718 28.084,14.9998 24.5,14.9998 C20.916,14.9998 18,17.7718 18,21.1778 C18,21.7308 17.552,22.1778 17,22.1778 C16.448,22.1778 16,21.7308 16,21.1778 C16,16.6688 19.813,12.9998 24.5,12.9998 C29.187,12.9998 33,16.6688 33,21.1778 C33,25.3618 29.718,28.8218 25.5,29.2998 M24.5,38.9998 C23.672,38.9998 23,38.3278 23,37.4998 C23,36.6718 23.672,35.9998 24.5,35.9998 C25.328,35.9998 26,36.6718 26,37.4998 C26,38.3278 25.328,38.9998 24.5,38.9998 M25,-0.0002 C11.193,-0.0002 0,11.1928 0,24.9998 C0,38.8068 11.193,49.9998 25,49.9998 C38.807,49.9998 50,38.8068 50,24.9998 C50,11.1928 38.807,-0.0002 25,-0.0002"/>
</symbol>
<symbol id="ico-service-2" viewBox="0 0 50 50">
  <path d="M19.083,18.9995 C17.75,18.9995 16.666,20.0835 16.666,21.4165 L16.666,28.2495 C16.666,29.5825 17.75,30.6665 19.083,30.6665 C20.416,30.6665 21.5,29.5825 21.5,28.2495 L21.5,21.4165 C21.5,20.0835 20.416,18.9995 19.083,18.9995 L19.083,18.9995 Z M44.001,28.2495 L44.001,21.4165 C44.001,18.9805 42.02,16.9995 39.584,16.9995 C37.148,16.9995 35.167,18.9805 35.167,21.4165 L35.167,28.2495 C35.167,30.6855 37.148,32.6665 39.584,32.6665 C42.02,32.6665 44.001,30.6855 44.001,28.2495 L44.001,28.2495 Z M26.917,28.2495 L26.917,21.4165 C26.917,20.0835 28.001,18.9995 29.333,18.9995 C30.666,18.9995 31.75,20.0835 31.75,21.4165 C31.75,21.9685 32.197,22.4165 32.75,22.4165 C33.303,22.4165 33.75,21.9685 33.75,21.4165 C33.75,18.9805 31.769,16.9995 29.333,16.9995 C26.898,16.9995 24.917,18.9805 24.917,21.4165 L24.917,28.2495 C24.917,30.6855 26.898,32.6665 29.333,32.6665 C31.769,32.6665 33.75,30.6855 33.75,28.2495 L33.75,24.8335 C33.75,24.2815 33.303,23.8335 32.75,23.8335 C30.314,23.8335 28.333,25.8145 28.333,28.2915 C28.333,28.8445 28.78,29.2715 29.333,29.2715 C29.886,29.2715 30.333,28.8025 30.333,28.2495 C30.333,27.2735 30.915,26.4305 31.75,26.0495 L31.75,28.2495 C31.75,29.5825 30.666,30.6665 29.333,30.6665 C28.001,30.6665 26.917,29.5825 26.917,28.2495 L26.917,28.2495 Z M23.5,21.4165 C23.5,18.9805 21.519,16.9995 19.083,16.9995 C16.647,16.9995 14.666,18.9805 14.666,21.4165 L14.666,28.2495 C14.666,30.6855 16.647,32.6665 19.083,32.6665 C21.519,32.6665 23.5,30.6855 23.5,28.2495 L23.5,21.4165 Z M14.833,31.6665 C14.833,31.1145 14.385,30.6665 13.833,30.6665 L8,30.6665 L8,17.9995 C8,17.4475 7.552,16.9995 7,16.9995 C6.448,16.9995 6,17.4475 6,17.9995 L6,31.6665 C6,32.2195 6.448,32.6665 7,32.6665 L13.833,32.6665 C14.385,32.6665 14.833,32.2195 14.833,31.6665 L14.833,31.6665 Z M50,24.9995 C50,38.8065 38.807,49.9995 25,49.9995 C11.193,49.9995 0,38.8065 0,24.9995 C0,11.1925 11.193,-0.0005 25,-0.0005 C38.807,-0.0005 50,11.1925 50,24.9995 L50,24.9995 Z M42.001,21.4165 L42.001,28.2495 C42.001,29.5825 40.917,30.6665 39.584,30.6665 C38.251,30.6665 37.167,29.5825 37.167,28.2495 L37.167,21.4165 C37.167,20.0835 38.251,18.9995 39.584,18.9995 C40.917,18.9995 42.001,20.0835 42.001,21.4165 L42.001,21.4165 Z"/>
</symbol>
<symbol id="ico-service-3" viewBox="0 0 50 50">
  <path d="M39.6885,11.4922 C39.0645,10.8632 38.1045,10.6062 36.3755,10.6062 C36.0695,10.6062 35.7805,10.7462 35.5895,10.9872 L21.8845,28.3432 C21.1435,28.1112 20.3565,28.0282 19.5575,28.1452 C18.1535,28.3482 16.9195,29.0812 16.0835,30.2072 C15.6025,30.8532 15.3435,31.6732 15.0925,32.4652 C14.4585,34.4682 13.9775,35.6072 11.6535,35.4812 C11.2475,35.4602 10.8635,35.6922 10.6935,36.0662 C10.5235,36.4392 10.5995,36.8792 10.8835,37.1742 C12.6475,39.0072 14.8635,39.9662 17.2075,39.9662 C18.0865,39.9662 18.9845,39.8302 19.8825,39.5552 C22.8625,38.6442 25.1525,36.3842 25.5815,33.9292 C25.7365,33.0392 25.6345,32.1792 25.3005,31.3872 L40.1295,15.3182 C40.3005,15.1342 40.3955,14.8912 40.3955,14.6402 L40.3975,14.2552 C40.4055,13.2102 40.4135,12.2222 39.6885,11.4922 L39.6885,11.4922 Z M50.0005,25.0002 C50.0005,38.8062 38.8065,50.0002 25.0005,50.0002 C11.1925,50.0002 0.0005,38.8062 0.0005,25.0002 C0.0005,11.1932 11.1925,0.0002 25.0005,0.0002 C38.8065,0.0002 50.0005,11.1932 50.0005,25.0002 L50.0005,25.0002 Z M36.8525,12.6152 L26.1555,26.1622 L26.8005,26.8092 L38.3975,14.2392 C38.4025,13.6772 38.4075,13.0402 38.2695,12.9012 C38.2095,12.8402 37.9375,12.6572 36.8525,12.6152 L36.8525,12.6152 Z M22.2655,30.7312 C21.5755,30.2142 20.7185,29.9992 19.8445,30.1242 C18.9715,30.2512 18.2055,30.7042 17.6885,31.3992 C17.4075,31.7762 17.2095,32.4042 16.9995,33.0682 C16.5655,34.4372 15.9675,36.3292 14.0345,37.1192 C15.6225,38.0092 17.4595,38.2032 19.2975,37.6432 C21.5045,36.9692 23.3185,35.2622 23.6115,33.5852 C23.8005,32.5022 23.3475,31.5412 22.2655,30.7312 L22.2655,30.7312 Z M25.4435,28.2802 L24.1285,29.7052 C23.9875,29.5672 23.8335,29.4352 23.6735,29.3052 L24.9075,27.7432 L25.4435,28.2802 Z"/>
</symbol>
<symbol id="ico-service-4" viewBox="0 0 50 50">
  <path d="M25,0A25,25,0,1,0,50,25,25,25,0,0,0,25,0ZM39.93,24.94a1,1,0,1,1-2,0V19.71L27.46,31.49a.9.9,0,0,1-.75.34,1,1,0,0,1-.75-.34L21.5,26.36l-8.75,8.73a1,1,0,1,1-1.41-1.42l9.51-9.48a1,1,0,0,1,.74-.29,1,1,0,0,1,.72.34l4.42,5.07,10-11.23H31.41a1,1,0,1,1,0-2h7.52l.13,0a.67.67,0,0,1,.4.15.94.94,0,0,1,.12.07l0,0a1,1,0,0,1,.14.18.49.49,0,0,1,.13.3,1,1,0,0,1,0,.21s0,0,0,0Z"/>
</symbol>
<symbol id="ico-service-5" viewBox="0 0 50 50">
  <path d="M40.375,16.625 C40.375,14.695 38.805,13.125 36.875,13.125 L13.125,13.125 C11.195,13.125 9.625,14.695 9.625,16.625 L9.625,34.125 C9.625,36.055 11.195,37.625 13.125,37.625 L36.875,37.625 C38.805,37.625 40.375,36.055 40.375,34.125 L40.375,16.625 Z M50,25 C50,38.807 38.807,50 25,50 C11.193,50 0,38.807 0,25 C0,11.193 11.193,0 25,0 C38.807,0 50,11.193 50,25 L50,25 Z M35.844,26 C35.844,25.448 35.396,25 34.844,25 L27.344,25 C26.791,25 26.344,25.448 26.344,26 C26.344,26.553 26.791,27 27.344,27 L34.844,27 C35.396,27 35.844,26.553 35.844,26 L35.844,26 Z M33.031,28.813 C33.031,28.26 32.584,27.813 32.031,27.813 L27.344,27.813 C26.791,27.813 26.344,28.26 26.344,28.813 C26.344,29.365 26.791,29.813 27.344,29.813 L32.031,29.813 C32.584,29.813 33.031,29.365 33.031,28.813 L33.031,28.813 Z M38.375,22.625 L38.375,34.125 C38.375,34.952 37.702,35.625 36.875,35.625 L25.062,35.625 L25.062,26 C25.062,25.448 24.615,25 24.063,25 L14.688,25 C14.135,25 13.688,25.448 13.688,26 L13.688,35.625 L13.125,35.625 C12.298,35.625 11.625,34.952 11.625,34.125 L11.625,22.625 L38.375,22.625 Z M13.438,18.031 C13.438,18.808 14.067,19.438 14.844,19.438 C15.621,19.438 16.25,18.808 16.25,18.031 C16.25,17.254 15.621,16.625 14.844,16.625 C14.067,16.625 13.438,17.254 13.438,18.031 L13.438,18.031 Z M17.188,18.031 C17.188,18.808 17.817,19.438 18.594,19.438 C19.371,19.438 20,18.808 20,18.031 C20,17.254 19.371,16.625 18.594,16.625 C17.817,16.625 17.188,17.254 17.188,18.031 L17.188,18.031 Z M20.938,18.031 C20.938,18.808 21.567,19.438 22.344,19.438 C23.121,19.438 23.75,18.808 23.75,18.031 C23.75,17.254 23.121,16.625 22.344,16.625 C21.567,16.625 20.938,17.254 20.938,18.031 L20.938,18.031 Z M11.625,20.625 L11.625,16.625 C11.625,15.798 12.298,15.125 13.125,15.125 L36.875,15.125 C37.702,15.125 38.375,15.798 38.375,16.625 L38.375,20.625 L11.625,20.625 Z M15.688,35.312 L23.063,35.312 L23.063,26.999 L15.688,26.999 L15.688,35.312 Z"/>
</symbol>
<symbol id="ico-service-6" viewBox="0 0 50 50">
  <path d="M38.7144,12.1089 L36.6844,10.0799 C35.3464,8.7449 33.1714,8.7439 31.8354,10.0799 L28.0884,13.8269 L13.5154,28.3999 C13.5034,28.4109 13.5014,28.4299 13.4894,28.4419 C13.4064,28.5319 13.3434,28.6399 13.2974,28.7609 C13.2904,28.7789 13.2724,28.7929 13.2664,28.8129 L10.8384,36.7059 C10.7284,37.0599 10.8244,37.4449 11.0864,37.7069 C11.2774,37.8979 11.5324,37.9999 11.7934,37.9999 C11.8914,37.9999 11.9904,37.9849 12.0874,37.9559 L19.9624,35.5329 L19.9814,35.5269 C20.0894,35.4939 20.1874,35.4369 20.2774,35.3689 C20.2984,35.3539 20.3184,35.3389 20.3384,35.3219 C20.3564,35.3069 20.3774,35.2949 20.3944,35.2779 L34.9664,20.7059 L38.7144,16.9589 C40.0504,15.6229 40.0504,13.4479 38.7144,12.1089 L38.7144,12.1089 Z M50.0004,24.9999 C50.0004,38.8069 38.8074,49.9999 25.0004,49.9999 C11.1934,49.9999 0.0004,38.8069 0.0004,24.9999 C0.0004,11.1929 11.1934,-0.0001 25.0004,-0.0001 C38.8074,-0.0001 50.0004,11.1929 50.0004,24.9999 L50.0004,24.9999 Z M19.5954,30.6119 L20.1814,32.6629 L32.8454,19.9989 L31.5274,18.6799 L19.5954,30.6119 Z M13.8554,33.6989 L13.3044,35.4879 L15.0934,34.9379 L13.8554,33.6989 Z M31.4054,13.3379 L30.2094,14.5339 L34.2594,18.5849 L35.4564,17.3879 L31.4054,13.3379 Z M28.7954,15.9479 L16.1314,28.6109 L18.1824,29.1969 L30.1124,17.2659 L28.7954,15.9479 Z M36.8714,15.9739 L37.3004,15.5449 C37.8574,14.9879 37.8574,14.0809 37.2994,13.5229 L35.2704,11.4949 C34.7124,10.9369 33.8044,10.9379 33.2494,11.4949 L32.8204,11.9239 L36.8714,15.9739 Z M18.4564,33.9029 L17.2564,34.2729 L14.5214,31.5359 L14.8894,30.3379 L17.6634,31.1299 L18.4564,33.9029 Z"/>
</symbol>
<symbol id="ico-service-7" viewBox="0 0 50 50">
  <path d="M40.3955,31.9824 C40.3955,29.2314 38.4725,27.5644 36.5745,27.3394 C35.3355,27.1964 33.8045,27.6314 32.7495,29.1054 C31.6955,27.6294 30.1645,27.1954 28.9255,27.3394 C27.0275,27.5644 25.1045,29.2314 25.1045,31.9824 C25.1045,35.9574 31.4395,40.6784 32.1625,41.2044 C32.3365,41.3324 32.5435,41.3954 32.7495,41.3954 C32.9565,41.3954 33.1635,41.3324 33.3375,41.2044 C34.0605,40.6784 40.3955,35.9574 40.3955,31.9824 M35.9795,22.8754 C35.9795,23.2334 35.9545,23.5924 35.9035,23.9404 C35.8235,24.4864 36.2025,24.9944 36.7485,25.0744 C37.2955,25.1504 37.8025,24.7754 37.8815,24.2294 C37.9465,23.7854 37.9795,23.3304 37.9795,22.8754 C37.9795,16.6604 31.7945,11.6044 24.1925,11.6044 C16.6995,11.6044 10.6035,16.6594 10.6035,22.8744 C10.6035,25.7874 11.7785,28.3754 14.0115,30.4014 L11.8985,35.1564 C11.7295,35.5364 11.8135,35.9804 12.1085,36.2724 C12.2995,36.4614 12.5545,36.5624 12.8125,36.5624 C12.9525,36.5624 13.0935,36.5334 13.2265,36.4724 L19.5395,33.6034 C20.5385,33.8664 21.6225,33.9994 22.3935,34.0644 C22.9505,34.1174 23.4285,33.7034 23.4755,33.1534 C23.5225,32.6034 23.1145,32.1194 22.5645,32.0724 C21.4565,31.9774 20.4835,31.8084 19.7495,31.5854 C19.5175,31.5154 19.2665,31.5304 19.0445,31.6314 L14.7955,33.5624 L16.1425,30.5314 C16.3275,30.1154 16.2085,29.6284 15.8535,29.3434 C13.7275,27.6434 12.6035,25.4064 12.6035,22.8744 C12.6035,17.7624 17.8025,13.6044 24.1925,13.6044 C30.5825,13.6044 35.9795,17.8494 35.9795,22.8754 M49.9995,25.0004 C49.9995,38.8064 38.8065,50.0004 24.9995,50.0004 C11.1925,50.0004 -0.0005,38.8064 -0.0005,25.0004 C-0.0005,11.1924 11.1925,0.0004 24.9995,0.0004 C38.8065,0.0004 49.9995,11.1924 49.9995,25.0004 M38.3955,31.9824 C38.3955,34.0414 35.1455,37.2754 32.7495,39.1434 C30.3535,37.2774 27.1045,34.0454 27.1045,31.9824 C27.1045,30.3984 28.1395,29.4474 29.1615,29.3264 C29.2425,29.3164 29.3215,29.3114 29.4005,29.3114 C30.5035,29.3114 31.4025,30.2424 31.7775,31.8024 C31.8855,32.2534 32.2885,32.5694 32.7495,32.5694 C33.2115,32.5694 33.6145,32.2534 33.7225,31.8024 C34.1245,30.1294 35.1215,29.1784 36.3385,29.3264 C37.3605,29.4474 38.3955,30.3984 38.3955,31.9824"/>
</symbol>
<symbol id="ico-service-8" viewBox="0 0 50 50">
  <path d="M24,19.8V24H19.8A5.31,5.31,0,0,1,24,19.8ZM32.23,24h5A12.31,12.31,0,0,0,26,12.74v5A7.31,7.31,0,0,1,32.23,24ZM12.74,24h5A7.31,7.31,0,0,1,24,17.78v-5A12.32,12.32,0,0,0,12.74,24ZM24,30.2V26H19.8A5.31,5.31,0,0,0,24,30.2ZM17.77,26h-5A12.31,12.31,0,0,0,24,37.26v-5A7.31,7.31,0,0,1,17.77,26ZM50,25A25,25,0,1,1,25,0,25,25,0,0,1,50,25Zm-8.85,0a1,1,0,0,0-1-1h-.89A14.31,14.31,0,0,0,26,10.74V9.54a1,1,0,0,0-2,0v1.2A14.31,14.31,0,0,0,10.74,24H9.54a1,1,0,1,0,0,2h1.2A14.31,14.31,0,0,0,24,39.26v.89a1,1,0,0,0,2,0v-.89A14.31,14.31,0,0,0,39.26,26h.89A1,1,0,0,0,41.15,25ZM26,32.23v5A12.31,12.31,0,0,0,37.26,26h-5A7.31,7.31,0,0,1,26,32.23ZM30.21,26H26v4.2A5.31,5.31,0,0,0,30.21,26ZM26,19.8V24h4.2A5.31,5.31,0,0,0,26,19.8Z"/>
</symbol>
</symbol></svg>